<svg width="20" height="20" viewBox="0 0 20 20" fill="none" xmlns="http://www.w3.org/2000/svg">
<path d="M7.04997 0.000164945C7.98097 -0.00966435 8.84996 0.420334 9.41996 1.15033L10.3 2.32033C10.58 2.67032 11 2.88032 11.45 2.88032H14.5199C18.2099 2.88032 20.0099 4.85032 20 8.8903V13.7603C20 17.6203 17.6199 20.0003 13.7499 20.0003H6.23997C2.38999 20.0003 0 17.6203 0 13.7503V6.24031C0 2.10033 1.83999 0.000164945 5.46998 0.000164945H7.04997ZM14.6299 11.7903H5.36998C4.94998 11.7903 4.61998 12.1203 4.61998 12.5403C4.61998 12.9503 4.94998 13.2903 5.36998 13.2903H14.6299C15.0399 13.2903 15.3699 12.9503 15.3699 12.5403C15.3699 12.1203 15.0399 11.7903 14.6299 11.7903Z" fill="white"/>
</svg>
