<svg width="20" height="20" viewBox="0 0 20 20" fill="none" xmlns="http://www.w3.org/2000/svg">
<path d="M10 0C11.3132 0 12.6136 0.258658 13.8268 0.761205C15.0401 1.26375 16.1425 2.00035 17.0711 2.92893C17.9997 3.85752 18.7362 4.95991 19.2388 6.17317C19.7413 7.38642 20 8.68678 20 10C20 12.6522 18.9464 15.1957 17.0711 17.0711C15.1957 18.9464 12.6522 20 10 20C8.68678 20 7.38642 19.7413 6.17317 19.2388C4.95991 18.7362 3.85752 17.9997 2.92893 17.0711C1.05357 15.1957 0 12.6522 0 10C0 7.34784 1.05357 4.8043 2.92893 2.92893C4.8043 1.05357 7.34784 0 10 0ZM10 8.5C9.60218 8.5 9.22064 8.65804 8.93934 8.93934C8.65804 9.22064 8.5 9.60218 8.5 10C8.5 10.3978 8.65804 10.7794 8.93934 11.0607C9.22064 11.342 9.60218 11.5 10 11.5C10.3978 11.5 10.7794 11.342 11.0607 11.0607C11.342 10.7794 11.5 10.3978 11.5 10C11.5 9.60218 11.342 9.22064 11.0607 8.93934C10.7794 8.65804 10.3978 8.5 10 8.5ZM4.5 8.5C4.10218 8.5 3.72064 8.65804 3.43934 8.93934C3.15804 9.22064 3 9.60218 3 10C3 10.3978 3.15804 10.7794 3.43934 11.0607C3.72064 11.342 4.10218 11.5 4.5 11.5C4.89782 11.5 5.27936 11.342 5.56066 11.0607C5.84196 10.7794 6 10.3978 6 10C6 9.60218 5.84196 9.22064 5.56066 8.93934C5.27936 8.65804 4.89782 8.5 4.5 8.5ZM15.5 8.5C15.1022 8.5 14.7206 8.65804 14.4393 8.93934C14.158 9.22064 14 9.60218 14 10C14 10.3978 14.158 10.7794 14.4393 11.0607C14.7206 11.342 15.1022 11.5 15.5 11.5C15.8978 11.5 16.2794 11.342 16.5607 11.0607C16.842 10.7794 17 10.3978 17 10C17 9.60218 16.842 9.22064 16.5607 8.93934C16.2794 8.65804 15.8978 8.5 15.5 8.5Z" fill="white"/>
</svg>
